<?xml version="1.0" encoding="iso-8859-1"?>
<!-- Generator: Adobe Illustrator 23.0.1, SVG Export Plug-In . SVG Version: 6.00 Build 0)  -->
<svg version="1.1" id="Layer_1" xmlns="http://www.w3.org/2000/svg" xmlns:xlink="http://www.w3.org/1999/xlink" x="0px" y="0px"
	 viewBox="0 0 500 500" style="enable-background:new 0 0 500 500;" xml:space="preserve">
<path style="fill:#00145F;" d="M62.524,0.002h374c63.001,0,63.001,62.999,63.001,62.999v373.998c0,63-63.001,63-63.001,63h-374
	c-62.999,0-62.999-63-62.999-63V63.001C-0.475,0.002,62.524,0.002,62.524,0.002L62.524,0.002z"/>
<path style="fill:#FFFFFF;" d="M176.779,380.07c-1.375-3.078-3.26-5.714-5.65-7.909c-2.393-2.194-5.207-3.881-8.45-5.06
	c-3.242-1.179-6.698-1.769-10.365-1.769c-3.668,0-7.124,0.59-10.366,1.769c-3.242,1.178-6.059,2.866-8.45,5.06
	c-2.391,2.195-4.274,4.831-5.649,7.909c-1.375,3.08-2.063,6.519-2.063,10.317c0,3.8,0.687,7.239,2.063,10.317
	c1.376,3.08,3.258,5.716,5.649,7.909c2.391,2.195,5.208,3.881,8.45,5.06c3.242,1.18,6.697,1.769,10.366,1.769
	c3.667,0,7.123-0.59,10.365-1.769c3.243-1.179,6.057-2.864,8.45-5.06c2.391-2.193,4.275-4.83,5.65-7.909s2.063-6.517,2.063-10.317
	C178.842,386.589,178.154,383.15,176.779,380.07z M161.01,399.131c-2.064,2.228-4.963,3.341-8.696,3.341
	c-3.734,0-6.633-1.113-8.696-3.341c-2.063-2.226-3.094-5.141-3.094-8.744c0-3.602,1.031-6.517,3.094-8.745
	c2.063-2.226,4.962-3.34,8.696-3.34s6.632,1.114,8.696,3.34c2.064,2.228,3.095,5.143,3.095,8.745S163.073,396.905,161.01,399.131z
	 M185.233,366.512h14.148v6.485h0.197c0.456-0.916,1.113-1.833,1.964-2.751c0.851-0.916,1.867-1.735,3.046-2.456
	c1.179-0.72,2.521-1.309,4.029-1.769c1.506-0.457,3.144-0.688,4.913-0.688c3.341,0,6.303,0.688,8.892,2.064
	c2.586,1.375,4.534,3.537,5.846,6.485c1.703-3.078,3.767-5.272,6.19-6.583c2.423-1.31,5.404-1.965,8.942-1.965
	c3.208,0,5.91,0.541,8.105,1.622c2.195,1.08,3.931,2.554,5.208,4.421c1.277,1.867,2.194,4.062,2.751,6.583
	c0.557,2.522,0.836,5.225,0.836,8.106v28.199h-14.738v-27.806c0-2.226-0.476-4.142-1.424-5.748c-0.951-1.604-2.638-2.407-5.06-2.407
	c-1.704,0-3.13,0.28-4.273,0.835c-1.148,0.558-2.064,1.327-2.752,2.309c-0.689,0.983-1.179,2.129-1.474,3.439
	c-0.295,1.311-0.443,2.686-0.443,4.126v25.251h-14.738v-25.253c0-0.85-0.033-1.899-0.098-3.144
	c-0.066-1.244-0.294-2.423-0.688-3.537c-0.393-1.113-1.033-2.064-1.916-2.85s-2.177-1.179-3.881-1.179
	c-1.9,0-3.438,0.344-4.617,1.032c-1.179,0.687-2.081,1.606-2.702,2.751c-0.624,1.147-1.031,2.441-1.228,3.881
	c-0.197,1.441-0.295,2.947-0.295,4.519v23.778h-14.738v-47.75L185.233,366.512L185.233,366.512z M275.455,378.302h-9.728v-11.791
	h9.728v-8.45c0-2.619,0.228-5.092,0.688-7.419c0.456-2.324,1.341-4.372,2.652-6.14c1.309-1.768,3.192-3.159,5.65-4.176
	c2.455-1.015,5.682-1.523,9.678-1.523c1.506,0,2.98,0.066,4.421,0.196c1.439,0.132,2.85,0.361,4.225,0.689l-0.677,12.283
	l-2.369-0.542c-0.722-0.163-1.541-0.246-2.457-0.246c-2.358,0-4.127,0.508-5.306,1.523c-1.179,1.017-1.767,3.095-1.767,6.239v7.566
	h10.905v11.791h-10.905v35.961h-14.738V378.302z M354.326,380.07c-1.375-3.078-3.26-5.714-5.65-7.909
	c-2.393-2.194-5.207-3.881-8.45-5.06c-3.242-1.179-6.698-1.769-10.365-1.769c-3.668,0-7.124,0.59-10.366,1.769
	c-3.242,1.178-6.059,2.866-8.45,5.06c-2.391,2.195-4.274,4.831-5.649,7.909c-1.375,3.08-2.063,6.519-2.063,10.317
	c0,3.8,0.688,7.239,2.063,10.317c1.376,3.08,3.258,5.716,5.649,7.909c2.391,2.195,5.208,3.88,8.45,5.06
	c3.242,1.18,6.697,1.769,10.366,1.769c3.667,0,7.123-0.59,10.365-1.769c3.243-1.179,6.057-2.864,8.45-5.06
	c2.391-2.193,4.275-4.83,5.65-7.909s2.063-6.517,2.063-10.317C356.389,386.589,355.701,383.15,354.326,380.07z M338.557,399.131
	c-2.064,2.228-4.962,3.341-8.696,3.341s-6.633-1.113-8.696-3.341c-2.063-2.226-3.094-5.141-3.094-8.744
	c0-3.602,1.031-6.517,3.094-8.745c2.063-2.226,4.962-3.34,8.696-3.34s6.632,1.114,8.696,3.34c2.064,2.228,3.095,5.143,3.095,8.745
	S340.62,396.905,338.557,399.131z M363.599,366.512h14.738v7.664h0.197c1.572-2.948,3.438-5.159,5.6-6.632
	c2.161-1.473,4.879-2.211,8.155-2.211c0.851,0,1.701,0.034,2.554,0.099c0.851,0.066,1.636,0.196,1.23,0.393v13.043l-1.967-0.32
	c-1.016-0.162-2.08-0.245-3.193-0.245c-2.818,0-5.045,0.393-6.682,1.179c-1.638,0.786-2.898,1.884-3.782,3.291
	c-0.884,1.409-1.459,3.095-1.719,5.06c-0.262,1.965-0.394,4.126-0.394,6.484v19.945h-14.737V366.512z M437.469,378.302h-12.97
	v15.917c0,1.311,0.065,2.506,0.196,3.586c0.131,1.081,0.425,2.015,0.885,2.8c0.457,0.786,1.163,1.392,2.113,1.818
	c0.949,0.427,2.211,0.639,3.782,0.639c0.787,0,1.818-0.081,3.096-0.246c1.276-0.163,2.242-0.54,2.898-1.129v12.281
	c-1.639,0.59-3.341,0.983-5.11,1.179c-1.769,0.196-3.505,0.295-5.207,0.295c-2.491,0-4.783-0.263-6.879-0.786
	s-3.93-1.359-5.501-2.505c-1.573-1.146-2.801-2.636-3.685-4.471c-0.884-1.833-1.327-4.06-1.327-6.681v-22.697h-9.432v-11.791h9.432
	v-14.148h14.739v14.148h12.97V378.302z M105.498,399.918c-2.425,1.311-5.208,1.965-8.352,1.965c-2.752,0-5.323-0.555-7.712-1.67
	c-2.391-1.113-4.471-2.669-6.24-4.667c-1.767-1.998-3.161-4.356-4.175-7.074c-1.017-2.718-1.523-5.715-1.523-8.991
	c0-3.208,0.506-6.19,1.523-8.941c1.015-2.751,2.422-5.124,4.225-7.123c1.801-1.997,3.929-3.552,6.386-4.667
	c2.456-1.113,5.124-1.67,8.007-1.67c2.883,0,5.42,0.492,7.615,1.474c1.556,0.696,2.929,1.618,4.139,2.742l12.966-8.426
	c-1.45-1.774-3.069-3.291-4.871-4.535c-1.901-1.31-3.882-2.358-5.944-3.144c-2.064-0.786-4.16-1.359-6.289-1.72
	c-2.129-0.359-4.174-0.54-6.14-0.54c-5.437,0-10.449,0.852-15.033,2.555c-4.584,1.704-8.547,4.144-11.888,7.319
	c-3.34,3.178-5.944,7.025-7.811,11.545c-1.867,4.52-2.8,9.564-2.8,15.131c0,5.568,0.933,10.611,2.8,15.131
	c1.867,4.519,4.471,8.368,7.811,11.545c3.341,3.178,7.304,5.617,11.888,7.32c4.584,1.702,9.596,2.555,15.033,2.555
	c4.78,0,9.433-0.983,13.952-2.948c4.454-1.937,8.141-4.928,11.069-8.965l-13.394-8.704
	C109.293,397.287,107.558,398.804,105.498,399.918z"/>
<g>
	<path style="fill:#FFB900;" d="M285.905,163.027c-0.85,0.69-1.998,0.905-3.133,0.633c-0.683-0.163-1.362-0.502-1.967-1.019
		c-11.498-9.832-24.347-16.259-37.327-19.362c-6.823-1.631-13.681-2.341-20.378-2.125c-0.281,0.008-0.553,0.026-0.838,0.058
		c2.168-8.618,5.901-16.758,11.365-23.966c4.409-5.807,9.62-10.578,15.383-14.362c0.501-0.329,1.017-0.628,1.526-0.941
		c1.354-0.833,2.735-1.615,4.144-2.34c0.56-0.288,1.117-0.581,1.686-0.851c1.787-0.853,3.606-1.638,5.467-2.321
		c0.129-0.047,0.25-0.107,0.379-0.154c1.993-0.716,4.033-1.308,6.097-1.831c0.593-0.15,1.194-0.273,1.792-0.407
		c1.558-0.349,3.132-0.645,4.722-0.885c0.624-0.095,1.245-0.197,1.873-0.274c2.14-0.265,4.295-0.465,6.477-0.534
		c6.698-0.216,13.555,0.494,20.378,2.125c12.98,3.103,25.829,9.53,37.327,19.362c0.605,0.517,1.283,0.856,1.967,1.019
		c0.508,0.122,1.01,0.112,1.496,0.04c0.1-0.015,0.193-0.025,0.29-0.048c0.441-0.103,0.853-0.282,1.218-0.551L285.905,163.027z"/>
	<path style="fill:#FF5F03;" d="M281.787,300.886c-0.211,0.171-0.448,0.319-0.707,0.438c-13.905,6.36-29.882,8.147-45.95,5.297
		c-1.735-0.301-3.465-0.663-5.201-1.078c-14.332-3.427-28.576-10.548-41.256-21.395c-19.361-16.564-31.508-38.733-35.444-61.118
		c-1.359-7.727-1.748-15.481-1.123-23.055c1.187-14.377,6.035-28.096,14.778-39.624c3.411-4.497,7.253-8.449,11.441-11.852
		l55.679-45.229c0,0,4.222-3.431,4.263-3.463c-1.36,1.112-2.628,2.363-3.912,3.59c-0.667,0.638-1.381,1.205-2.026,1.874
		c-1.889,1.958-3.685,4.045-5.372,6.27c-1.093,1.441-2.125,2.916-3.096,4.423c-2.437,3.777-4.448,7.769-6.132,11.892
		c-1.88,4.604-3.303,9.385-4.265,14.295c-0.238,1.215-0.485,2.427-0.667,3.656c-0.263,1.774-0.469,3.561-0.617,5.357
		c-0.625,7.574-0.236,15.328,1.123,23.055c0.492,2.798,1.112,5.593,1.859,8.374c1.494,5.562,3.492,11.068,5.981,16.434
		c4.977,10.732,11.914,20.906,20.685,29.847c2.193,2.235,4.5,4.394,6.92,6.464c12.68,10.847,26.923,17.969,41.256,21.395
		c1.736,0.415,3.466,0.777,5.201,1.078c2.008,0.356,4.016,0.641,6.017,0.852c2.002,0.212,3.998,0.351,5.986,0.418
		c3.975,0.134,7.912-0.021,11.783-0.464c1.935-0.221,3.853-0.515,5.751-0.88c5.693-1.095,11.199-2.837,16.413-5.222
		c0.245-0.112,0.469-0.249,0.671-0.409l0.005-0.003L281.787,300.886z"/>
	<path style="fill:#FF9B0F;" d="M346.522,113.653c-0.181,0.239-0.399,0.429-0.626,0.603c-0.377,0.289-0.805,0.479-1.266,0.587
		c-0.095,0.022-0.193,0.033-0.29,0.048c-0.486,0.072-0.988,0.082-1.496-0.04c-0.684-0.163-1.362-0.502-1.967-1.019
		C329.379,104,316.529,97.573,303.55,94.47c-6.823-1.631-13.681-2.341-20.378-2.125c-2.181,0.07-4.337,0.27-6.477,0.534
		c-0.629,0.077-1.249,0.18-1.873,0.274c-1.59,0.24-3.164,0.536-4.722,0.885c-0.598,0.134-1.199,0.257-1.792,0.407
		c-2.064,0.522-4.105,1.114-6.097,1.831c-0.129,0.046-0.25,0.107-0.379,0.154c-1.862,0.682-3.681,1.468-5.467,2.321
		c-0.569,0.27-1.125,0.563-1.686,0.851c-1.409,0.725-2.79,1.507-4.144,2.34c-0.509,0.314-1.024,0.613-1.526,0.941
		c-5.762,3.784-10.973,8.555-15.383,14.362c-5.464,7.209-9.197,15.348-11.365,23.966c-0.977,3.88-1.667,7.847-2,11.885
		c-0.566,6.854-0.219,13.876,1.015,20.871c3.575,20.285,14.531,40.291,32.066,55.293c11.498,9.831,24.357,16.271,37.327,19.371
		c1.574,0.377,3.133,0.697,4.706,0.97c14.546,2.579,29.017,0.959,41.585-4.791c0.761-0.345,1.611-0.396,2.431-0.2
		c1.254,0.3,2.439,1.175,3.135,2.46c1.162,2.136,0.539,4.568-1.375,5.442c-5.215,2.385-10.72,4.127-16.413,5.222
		c-1.897,0.365-3.815,0.659-5.751,0.88c-3.871,0.443-7.808,0.598-11.783,0.464c-1.987-0.067-3.984-0.206-5.986-0.418
		c-2.002-0.211-4.009-0.495-6.017-0.852c-1.735-0.301-3.465-0.663-5.201-1.078c-14.332-3.426-28.575-10.548-41.256-21.395
		c-2.42-2.07-4.728-4.229-6.92-6.464c-8.771-8.94-15.707-19.114-20.685-29.847c-2.488-5.367-4.487-10.873-5.981-16.434
		c-0.747-2.781-1.367-5.576-1.859-8.374c-1.358-7.728-1.748-15.482-1.123-23.055c0.148-1.797,0.354-3.584,0.617-5.357
		c0.182-1.229,0.429-2.441,0.667-3.656c0.961-4.91,2.384-9.691,4.265-14.295c1.684-4.123,3.696-8.115,6.132-11.892
		c0.972-1.507,2.004-2.982,3.096-4.423c1.687-2.225,3.484-4.312,5.372-6.27c0.645-0.669,1.36-1.236,2.026-1.874
		c1.284-1.227,2.552-2.478,3.912-3.59c12.228-9.988,27.417-15.289,43.441-15.794c7.389-0.237,14.962,0.542,22.511,2.347
		c14.332,3.426,28.585,10.56,41.265,21.407C347.321,109.342,347.792,111.984,346.522,113.653z"/>
</g>
</svg>
