<svg role="img" aria-label="Quality Inn" id="quality-updated-logo-svg" xmlns="http://www.w3.org/2000/svg" xmlns:xlink="http://www.w3.org/1999/xlink" x="0px" y="0px"
	 viewBox="0 0 500 500" style="enable-background:new 0 0 500 500;" xml:space="preserve">
<path style="fill-rule:evenodd;clip-rule:evenodd;fill:#007663;" d="M500.293,437.026c0.041,34.289-27.992,62.364-62.26,62.407
	l-374.851,0.423c-34.268,0.043-62.386-27.97-62.429-62.26L0.33,62.79c0-34.268,28.033-62.366,62.279-62.407L437.44,0
	c34.268-0.043,62.429,27.949,62.47,62.26L500.293,437.026z"/>
<path style="fill-rule:evenodd;clip-rule:evenodd;fill:#231F20;" d="M118.978,163.029c29.265,27.907,67.688,69.808,103.081,91.099
	c46.842,28.14,113.046,17.706,112.983-28.733c0-7.698-2.736-14.759-6.933-19.595c-2.163-2.564-4.877-0.467-2.905,1.909
	c9.394,11.07,1.229,45.04-34.693,44.956c-12.51,0.022-28.563-4.219-47.817-16.666c-37.153-23.984-78.63-71.336-104.247-92.584
	c-33.738-27.949-70.572-36.919-101.511-36.878c-15.163,0-27.271,1.676-36.962,4.328l0.022,11.557
	c7.804-2.141,16.245-2.927,24.98-2.949C76.461,119.408,110.518,154.97,118.978,163.029"/>
<path style="fill-rule:evenodd;clip-rule:evenodd;fill:#231F20;" d="M356.333,163.304c-2.523-2.056-6.87,0.128-2.736,5.216
	c4.432,5.472,11.324,15.12,11.346,34.524c0.041,47.67-38.044,78.418-83.403,78.461c-63.319,0.104-97.142-38.617-170.704-110.101
	c-44.51-43.216-84.25-50.234-110.842-44.489l0.022,7.485c27.651,0.043,56.151,21.25,75.004,42.306
	c8.97,10.052,34.142,38.552,64.168,65.758c-75.831,3.583-112.283-29.475-139.131-54.71l0.065,59.27
	c64.103,38.869,145.342,24.535,162.414,15.352c0.912,0.677,1.759,1.379,2.649,2.056c28.077,21.949,64.127,35.69,101.087,35.646
	C386.212,299.953,386.826,187.902,356.333,163.304"/>
<path style="fill-rule:evenodd;clip-rule:evenodd;fill:#FEE787;" d="M-0.007,126.893c30.07-4.727,62.429,18.577,83.169,41.67
	c11.45,12.829,49.387,55.897,90.102,87.748c28.099,21.927,64.106,35.709,101.129,35.668c119.94-0.15,120.554-112.199,90.061-136.819
	c-2.545-2.037-6.892,0.148-2.736,5.238c4.432,5.45,11.302,15.12,11.324,34.524c0.043,47.67-38.063,78.418-83.401,78.48
	c-63.341,0.063-97.057-38.658-170.726-110.121C69.654,115.4,26.183,111.965-0.007,121.085V126.893z"/>
<path style="fill-rule:evenodd;clip-rule:evenodd;fill:#FEE787;" d="M33.075,111.35c51.487-0.063,85.585,35.477,94.024,43.535
	c29.243,27.907,67.625,69.829,103.103,91.12c46.801,28.162,113.026,17.706,112.961-28.754c0-7.676-2.756-14.738-6.933-19.574
	c-2.163-2.545-4.899-0.445-2.927,1.887c9.394,11.092,1.231,45.04-34.691,44.999c-12.534-0.022-28.565-4.219-47.82-16.668
	c-37.173-24.047-78.609-71.356-104.247-92.584c-33.738-27.968-70.55-36.939-101.489-36.897c-19.743,0.022-34.268,3.754-45.084,7.889
	v10.773C9.96,112.877,21.222,111.372,33.075,111.35"/>
<path style="fill-rule:evenodd;clip-rule:evenodd;fill:#E3A025;" d="M338.329,200.436c9.754,18.829,1.611,56.979-50.024,57.02
	c-17.856,0.022-37.216-5.363-54.054-15.5c-35.434-21.313-73.816-63.215-103.1-91.099c-8.484-8.102-42.497-43.642-94.026-43.579
	c-16.01,0.022-29.603,3.351-37.132,6.936v2.862c9.989-4.219,21.228-5.726,33.06-5.726c51.509-0.063,85.607,35.499,94.026,43.557
	c29.284,27.886,67.667,69.829,103.1,91.099c46.823,28.162,113.048,17.706,113.004-28.754
	C343.163,210.911,341.297,205.037,338.329,200.436"/>
<path style="fill-rule:evenodd;clip-rule:evenodd;fill:#FFFFFF;" d="M335.02,202.28c6.362,13.085-3.053,42.326-36.409,42.285
	c-12.534-0.022-28.585-4.241-47.82-16.668c-37.151-24.025-78.587-71.334-104.247-92.584c-33.716-27.99-70.55-36.96-101.489-36.919
	c-19.743,0.022-34.246,3.776-45.084,7.889v2.927c11.474-4.284,23.688-6.701,41.012-6.723c30.939-0.022,67.795,8.929,101.47,36.878
	c25.68,21.247,67.137,68.579,104.288,92.582c19.233,12.449,35.308,16.711,47.839,16.69
	C338.37,248.573,342.464,210.401,335.02,202.28"/>
<path style="fill-rule:evenodd;clip-rule:evenodd;fill:#FFFFFF;" d="M-0.007,123.374c26.485-7.379,68.049-1.505,114.913,43.959
	c73.584,71.484,107.3,110.186,170.663,110.121c86.984-0.085,103.567-83.57,78.502-113.958c4.2,5.874,8.949,15.267,8.97,31.427
	c0.043,47.67-38.063,78.439-83.401,78.48c-63.341,0.063-97.057-38.658-170.726-110.121c-49.261-47.861-92.732-51.318-118.922-42.198
	V123.374z"/>
<path style="fill-rule:evenodd;clip-rule:evenodd;fill:#E3A025;" d="M-0.007,126.893c30.07-4.727,62.429,18.577,83.169,41.67
	c11.45,12.829,49.387,55.897,90.102,87.748c28.099,21.927,64.106,35.709,101.129,35.668c113.345-0.15,120.131-100.219,94.79-131.983
	c7.802,10.093,10.432,26.761,10.432,39.612c0.085,50.384-38.912,88.237-101.15,88.3c-37.004,0.041-73.052-13.721-101.15-35.668
	c-40.756-31.829-78.65-74.876-90.124-87.727c-11.281-12.575-25.997-25.234-41.965-33.358c-11.704-6-29.475-10.03-45.231-6.721
	V126.893z"/>
<path style="fill-rule:evenodd;clip-rule:evenodd;fill:#E3A025;" d="M158.464,258.729c-7.657-6.275-15.142-12.851-22.309-19.445
	c-55.578-1.568-107.576-35.243-136.117-68.259L0.1,233.792C51.29,269.247,122.52,268.398,158.464,258.729"/>
<path style="fill-rule:evenodd;clip-rule:evenodd;fill:#FEE787;" d="M0.056,181.351c25.851,28.796,81.981,64.336,139.342,60.881
	l-3.264-2.949c-55.539-1.568-107.556-35.243-136.098-68.24L0.056,181.351z"/>
<path style="fill-rule:evenodd;clip-rule:evenodd;fill:#231F20;" d="M220.15-0.084c30.832,38.402,72.863,136.352,3.774,207.962
	c5.218,4.412,10.434,8.569,15.565,12.364c57.871-53.374,69.682-160.038,35.796-220.389L220.15-0.084z"/>
<path style="fill-rule:evenodd;clip-rule:evenodd;fill:#E3A025;" d="M233.828-0.084c33.102,45.231,60.054,135.863-1.824,199.862
	c5.216,4.389,10.434,8.545,15.587,12.321c53.735-47.65,67.814-143.943,40.671-212.246L233.828-0.084z"/>
<path style="fill-rule:evenodd;clip-rule:evenodd;fill:#FEE787;" d="M282.112-0.147c25.15,60.796,22.118,155.732-36.07,211.058
	l1.548,1.207c53.754-47.67,67.814-143.943,40.65-212.266H282.112z"/>
<g>
	<path style="fill:#FFFFFF;stroke:#FFFFFF;stroke-width:1.7092;" d="M112.582,329.712v3.938c4.424,0.521,5.883,0.374,6.734,7.068
		c0.845,6.68,0.087,43.08,0.087,44.689c0,21.189,13.665,25.641,25.141,25.641c7.525,0,20.813-1.769,25.101-13.601
		c3.08-8.576,4.084-30.58,4.185-42.213c0-7.595,0.12-12.139,0.264-14.836c0.287-5.225,0.851-5.933,6.267-6.08v-4.605
		c-6.294,0.815-15.217-0.013-21.36,0l0.507,4.365c6.561,0.347,8.353,0.895,8.353,21.143c0,18.927-0.898,31.167-2.75,37.434
		c-3.233,10.758-13.915,11.606-17.108,11.606c-9.801,0-15.12-5.219-16.621-15.951c-1.305-9.244-0.865-37.114-0.604-41.946
		c0.617-11.312,2.73-11.993,9.941-12.647l-0.798-4.005C130.998,330.193,123.053,330.02,112.582,329.712z"/>
	<path style="fill:#FFFFFF;stroke:#FFFFFF;stroke-width:1.7092;" d="M204.892,351.089c3.06,8.249,5.68,17.406,8.009,25.614
		c-4.321,0.681-10.848,0.294-15.787-0.621L204.892,351.089z M207.228,328.198c-3.437,13.101-20.686,66.619-24.1,73.66
		c-1.792,3.798-4.475,4.431-5.989,4.805v3.537c5.386-0.521,14.188,0.133,20.212,0.333v-3.898c-7.842-1.435-8.082-3.897-6.904-8.256
		c1.281-4.805,4.208-14.075,4.609-15.283c11.796-1.675,19.481-0.507,19.481-0.507c0.941,3.304,3.617,12.667,4.732,17.265
		c0.588,2.469,1.598,5.586-4.441,6.781v3.951c10.098-1.268,18.487-1.028,23.582-0.374v-3.577c-2.726-0.521-4.715-0.901-7.541-8.776
		c-1.065-2.99-15.507-49.954-20.268-69.662H207.228z"/>
	<path style="fill:#FFFFFF;stroke:#FFFFFF;stroke-width:1.7092;" d="M273.687,329.185c-3.674,0.234-20.479,0.647-25.745,0.127v4.104
		c5.4,0.487,5.943,2.27,6.244,6.941c0.167,2.896,0.087,46.21-0.033,53.525c-0.147,9.223-1.542,10.758-7.038,11.586l0.284,4.185
		h25.945c6.277,0,14.736,0.133,20.022,1.622c0,0,3.584-14.809,3.984-18.907l-3.247-0.534c-1.315,5.706-3.02,11.659-22.307,11.659
		c-6.344,0-6.204-1.862-6.431-7.134c-0.176-3.678-0.23-48.452,0.944-56.702c0.718-5.018,2.406-5.339,7.378-6.133V329.185z"/>
	<path style="fill:#FFFFFF;stroke:#FFFFFF;stroke-width:1.7092;" d="M304.413,333.456c9.411,0,9.17,3.25,9.551,7.475
		c0.754,8.276,1.031,46.304-0.18,56.622c-0.718,6.307-1.662,7.034-10.148,8.316v4.211c5.84-0.761,20.936-0.507,31.067-0.04
		l0.254-4.198c-9.8-0.641-8.739-3.597-8.949-7.435c-0.361-7.081-0.671-49.173,0.817-58.751c0.67-4.264,0.711-6.019,7.765-5.566
		v-5.026c-6.587,0.675-20.075,0.675-30.056-0.107L304.413,333.456z"/>
	<path style="fill:#FFFFFF;stroke:#FFFFFF;stroke-width:1.7092;" d="M345.542,327.55c-0.657,2.87-2.022,8.629-4.205,15.544
		l3.474,1.081c1.138-3.778,1.862-6.187,7.288-7.161c4.455-0.808,11.81-0.461,15.107-0.16c1.318,7.635,0.724,53.705,0.617,58.577
		c-0.147,6.707-0.757,7.254-3.988,8.843c-1.635,0.688-4.648,1.829-6.814,2.522l1.154,4.278c9.934-2.022,17.966-2.022,31.197-0.541
		l0.37-4.098c-1.819-0.267-5.319-1.021-5.319-1.021c-3.033-0.801-4.562-2.269-4.695-7.541c-0.584-25.188,0.2-50.382,0.56-61.18
		c8.803-0.58,14.309-0.167,17.593,2.837c-0.054,0.487-0.437,5.279-0.437,5.279l4.018-0.874c0.33-4.418,1.939-10.678,2.9-14.022
		l-2.102-1.608c-0.694,0.547-0.957,0.787-2.313,0.901c-7.742,0.48-41.625,0.948-48.279-0.113c-1.195-0.12-2.86-0.56-3.838-1.542
		H345.542z"/>
	<path style="fill:#FFFFFF;stroke:#FFFFFF;stroke-width:1.7092;" d="M412.807,329.339l0.534,4.117
		c5.119,0,6.473,3.704,10.838,10.464c10.198,17.579,12.814,23.025,15.837,29.292c0.08,2.169-0.08,23.652-0.267,26.669
		c-0.18,3.157,0.027,6.027-7.935,6.848l-0.12,3.931c11.566-1.682,18.627-0.875,27.897,0.053l0.267-3.945
		c-5.76-1.007-8.229-2.242-8.389-6.28c-0.161-4.172-0.254-13.948-0.254-28.338c3.03-7.501,11.379-24.019,14.95-29.812
		c4.625-7.141,7.388-7.541,11.352-7.608l0.12-5.139c-7.155,0.16-13.221,0.52-21.564-0.241l-0.407,4.725
		c3.237,0.134,6.201,0.494,6.201,3.431c0,2.616-0.508,3.731-12.608,28.124c-5.479-8.723-13.568-23.159-15.69-28.244
		c-0.908-2.116-1.028-3.417,4.638-3.417l0.508-4.512C427.13,330.112,423.82,329.605,412.807,329.339z"/>
	<path style="fill:#FFFFFF;stroke:#FFFFFF;stroke-width:1.7092;" d="M76.025,403.265c9.006-7.615,13.878-23.292,13.878-43.454
		c0-29.212-10.204-48.806-25.391-48.806c-16.892,0-27.263,19.375-27.263,48.806c0,8.71,0.824,16.478,2.38,23.072
		c1.505-0.307,3.08-0.467,4.708-0.467c23.282,0,27.554,35.785,48.513,35.785c9.553,0,14.769-9.797,11.796-16.465
		c-1.034-2.309,0.905-3.944,2.974-1.622c4.368,4.912,3.144,25.922-17.996,25.922c-25.665,0-31.457-37.862-48.503-37.862
		c3.647,11.052,9.057,17.927,17.099,19.642l2.88,4.191c-7.655,0.601-21.213-3.99-30.156-18.874
		c-3.28,4.018-4.535,9.824-2.509,14.936c1.154,2.896-2.146,5.152-3.621,1.195c-3.176-7.815-1.228-15.437,3.791-20.543
		c-3.417-7.341-5.62-16.692-5.62-28.457c0-29.426,18.614-52.811,40.878-52.811c20.716,0,40.087,18.647,40.087,50.869
		c0,20.482-9.771,39.843-24.804,48.686L76.025,403.265z"/>
</g>
<g>
	<path style="fill:#FFFFFF;stroke:#FFFFFF;stroke-width:1.7092;" d="M167.202,439.778c6.377,0,6.404,1.368,6.724,3.711
		c0.617,4.452,0.894,26.035-0.08,32.221c-0.547,3.444-1.435,3.858-7.211,4.519v2.155c4.895-0.414,15.604-0.094,21.757-0.027
		l0.174-2.129c-6.13-0.314-6.21-1.529-6.367-4.305c-0.267-4.765-0.624-27.17,0.638-32.876c0.59-2.669,1.368-2.909,6.13-2.909v-2.57
		c-7.962,0.487-14.803,0.22-21.687-0.067L167.202,439.778z"/>
	<path style="fill:#FFFFFF;stroke:#FFFFFF;stroke-width:1.7092;" d="M292.696,437.717c-2.319,0.073-8.473-0.107-10.478-0.361
		l0.013,2.476c5.59,0.868,6.05,5.106,5.903,11.446c0,0.014-0.357,20.763-0.357,20.763c-0.134,6.04-0.758,8.335-4.989,8.39
		l0.006,2.302c4.615-0.427,11.95-0.868,16.826,0l-0.02-2.276c-7.01-1.088-7.735-3.217-7.735-8.523
		c0-0.521,0.413-22.051,0.484-23.739c1.692,1.535,24.233,23.352,24.233,23.352c3.831,3.65,7.525,7.368,9.867,11.792h2.413
		c-0.824-7.014-0.193-34.41,0.741-39.823c0.504-2.95,1.555-3.697,4.385-3.497v-2.176c-4.719,0.28-12.264-0.353-15.951-0.42
		l-0.007,2.089c3.891,0.373,5.639,0.694,6.41,4.264c1.131,5.686,0.404,24.981,0.384,25.721
		C324.36,469.064,303.404,449.529,292.696,437.717z"/>
	<path style="fill:#FFFFFF;stroke:#FFFFFF;stroke-width:1.7092;" d="M219.9,437.717c-2.313,0.073-8.459-0.107-10.481-0.361
		l0.014,2.476c5.599,0.868,6.063,5.106,5.906,11.446c0,0.014-0.353,20.763-0.353,20.763c-0.14,6.04-0.758,8.335-4.979,8.39v2.302
		c4.615-0.427,11.939-0.868,16.808,0l-0.013-2.276c-6.994-1.088-7.725-3.217-7.725-8.523c0-0.521,0.404-22.051,0.491-23.739
		c1.662,1.535,24.203,23.352,24.203,23.352c3.851,3.65,7.555,7.368,9.897,11.792h2.393c-0.811-7.014-0.187-34.41,0.751-39.823
		c0.491-2.95,1.552-3.697,4.395-3.497v-2.176c-4.722,0.28-12.267-0.353-15.964-0.42l-0.02,2.089
		c3.897,0.373,5.646,0.694,6.434,4.264c1.125,5.686,0.4,24.981,0.381,25.721C251.564,469.064,230.595,449.529,219.9,437.717z"/>
</g>
</svg>
