<svg role="img" aria-label="Sleep Inn" id="sleep-inn-logo-svg" xmlns="http://www.w3.org/2000/svg" viewBox="0 0 500 500"><path d="M499.191 436.593c0 34.222-27.995 62.738-62.217 62.78H62.831C28.61 499.41.61 471.373.61 437.156V63.017C.61 28.799 28.61.8 62.831.8h374.144c34.222 0 62.217 27.999 62.217 62.217v373.576z" fill-rule="evenodd" clip-rule="evenodd" fill="#25358e"/><linearGradient id="a" gradientUnits="userSpaceOnUse" x1="129.675" y1="48.133" x2="356.955" y2="238.844"><stop offset="0" stop-color="#ffc209"/><stop offset=".732" stop-color="#c46029"/><stop offset=".77" stop-color="#a65034"/><stop offset=".848" stop-color="#6e3148"/><stop offset=".915" stop-color="#451a57"/><stop offset=".968" stop-color="#2c0c61"/><stop offset="1" stop-color="#230764"/></linearGradient><path d="M376.602 200.238l1.349 13.583-50.852.059-1.665.046-4.397-22.455-4.131-17.28-4.955-14.718-6.661-13.153-7.664-12.28-8.761-11.392-9.717-10.427-10.614-9.388-11.424-8.245-12.142-7.11-12.796-5.893-13.295-4.566-13.821-3.216-14.169-1.775-14.494-.293-14.755 1.272-14.581 2.818-13.945 4.26-13.263 5.605-12.522 6.858-11.708 8.089-10.88 9.191-9.932 10.157-2.667-1.651s1.198-2.315 1.35-2.585c27.592-37.722 66.961-62.597 111.948-68.869 45.01-6.268 90.056 5.696 125.751 35.091 43.237 35.672 59.387 70.667 65.413 118.267z" fill-rule="evenodd" clip-rule="evenodd" fill="url(#a)"/><path d="M376.602 200.238c-6.026-47.6-22.176-82.595-65.415-118.266-35.695-29.395-80.742-41.359-125.751-35.091-44.987 6.273-84.356 31.148-111.948 68.869-.151.27-1.35 2.585-1.35 2.585l2.667 1.651 9.932-10.157 10.88-9.191 11.708-8.089 12.522-6.858 13.263-5.605 13.945-4.26 14.581-2.818 14.755-1.272 14.494.293 14.169 1.775 13.821 3.216 13.295 4.566 12.796 5.893 12.142 7.11 11.424 8.245 10.614 9.388 9.717 10.427 8.761 11.392 7.664 12.28 6.661 13.153 4.955 14.718 4.131 17.28 4.397 22.455 1.665-.046 50.852-.059-1.347-13.584z" clip-rule="evenodd" fill="none"/><path d="M216.381 290.642l4.328-.005-7.471 22.825-62.857.068-.004-4.79.178-.005c12.522-.009 13.853-2.539 13.844-12.508l-.064-59.44c-.009-6.296-.014-10.107-2.05-12.138-1.775-1.807-5.12-2.42-12.376-2.315h-.197l-.005-4.767 44.575-.05.005 4.767h-.215c-14.736.284-15.175.613-15.162 12.536l.073 65.31c.009 5.092.009 5.174 1.254 5.769 2.869 1.505 7.174 1.501 10.367 1.501 14.755-.018 18.318-1.354 25.712-16.639l.065-.119zm73.065-.796v-.146l4.31-.005-1.812 23.676-70.223.082-.005-4.575h.197c5.815.234 9.246-.53 11.255-2.521 2.031-1.995 2.42-5.174 2.416-10.011l-.069-61.59c-.005-5.458-.728-8.418-2.457-10.185-2.104-2.063-5.865-2.42-11.241-2.315h-.201v-4.772l66.55-.073.81 21.274-4.09.005-.023-.146c-2.178-14.485-5.243-15.116-14.663-15.107l-20.135.023.041 37.759c.371-.005 20.245-.023 20.245-.023l1.029-.005c6.341-.004 8.725.064 9.457-11.062v-.201l4.456-.004.032 29.871-4.456.005-.005-.197c-.402-11.739-2.242-12.161-11.84-12.147l-18.909.018.032 30.626c.009 4.607.119 6.743 1.107 7.75.961.965 2.818.965 6.273.96l15.107-.018c8.787-.009 13.179-.764 16.812-16.946zm-144.244 6.803c.032 27.537-20.103 48.286-46.817 48.313-8.372.009-18.323-3.331-24.907-5.573-3.262-1.121-5.861-1.944-6.849-1.944-1.766.005-3.363 1.103-4.387 2.988l-.046.082-4.612.009-4.9-43.079 5.156-.005v.137c4.639 23.978 19.765 39.392 38.504 39.369 15.564-.018 31.335-11.328 31.312-32.936-.023-19.138-16.521-31.902-33.98-45.431-19.435-15.034-39.501-30.594-39.529-56.461-.027-23.31 17.532-40.948 40.883-40.975 11.676-.009 17.642 2.53 22.477 4.598 3.088 1.345 5.513 2.393 8.597 2.393 1.793-.005 2.645-.6 3.907-2.722l.091-.133 4.374-.005 3.971 36.102-4.676.009-.068-.133c-6.337-20.058-20.762-32.996-36.656-32.978-14.929.018-25.392 10.811-25.374 26.215.018 18.593 16.1 30.823 33.105 43.798 19.873 15.141 40.396 30.811 40.424 58.362zm222.318-6.89l.023-.147 4.282-.004-1.743 23.676-70.247.082-.005-4.575.22-.005c5.792.238 9.224-.526 11.191-2.521 2.05-1.99 2.42-5.17 2.416-10.01l-.073-61.586c-.005-5.458-.663-8.418-2.434-10.189-2.104-2.059-5.819-2.416-11.2-2.315h-.22v-4.767l66.504-.073.878 21.274-4.136.004-.041-.146c-2.137-14.485-5.22-15.121-14.618-15.107l-20.139.023.041 37.754 20.245-.023h1.029c6.296-.005 8.725.06 9.452-11.062v-.201l4.46-.005.032 29.866-4.461.009-.041-.197c-.361-11.74-2.2-12.161-11.84-12.147l-18.868.018.032 30.626c.009 4.607.073 6.744 1.062 7.75.983.966 2.841.961 6.249.961l15.176-.018c8.768-.008 13.119-.763 16.774-16.945zm39.355-17.985c3.628 1.135 8.308 2.379 13.446 2.375 16.727-.018 29.304-12.893 29.285-29.922-.023-18.643-12.211-28.082-36.171-28.054-14.233.014-29.688 1.487-35.856 2.242h-.192l.005 4.644.261-.059c1.07-.201 3.825-.402 6.012-.407 8.395-.005 8.404 5.943 8.409 10.715l.068 62.665c.005 4.831-.384 8.08-2.393 10.042-1.944 1.94-5.376 2.681-11.255 2.466l-.219.005.005 4.79 45.257-.05-.005-4.863-.242-.037c-15.285-.394-16.379-1.171-16.393-11.969.001-.001-.022-24.025-.022-24.583zm9.942-2.841c-4.044.005-6.908-.563-9.946-1.455l-.055-46.135a78.062 78.062 0 0 1 7.585-.407c18.671-.023 20.094 18.158 20.099 23.786.004 5.65-1.176 24.193-17.683 24.211zM167.629 406.209l-.055-48.427c-.014-11.319-.014-11.511 11.049-12.051l1.789-.014-.005-4.923-39.744.046.005 4.882 1.793.05h.087c9.576.709 11.63.815 11.643 12.202l.055 47.828c.014 12.536-1.688 12.586-11.2 12.948l-1.62.018h-.174l.005 5.005 39.858-.041-.009-5.01-1.725-.014c-9.904-.704-11.743-1.199-11.752-12.499zm82.26-65.493l.005 4.937 1.793-.005c.965 0 5.815.238 6.977.457 4.721.467 4.721 4.749 4.731 9.626 0 0 .046 42.704.05 43.82-.352-.412-.81-.983-.81-.983-2.342-2.923-8.496-10.848-45.825-57.715l-.087-.1-23.201.027.009 4.923 1.793.009c6.643.338 10.733.512 10.747 10.619l.059 52.16c0 3.93-.32 6.524-1.83 8.071-1.661 1.601-4.676 2.37-9.026 2.265l-1.835-.073.005 4.964 34.519-.041-.005-4.886-1.816.005c-11.365-.211-12.833-.714-12.847-12.545 0 0-.05-46.401-.05-47.567.677.91 51.951 65.497 51.951 65.497l5.444-.005-.074-68.453c-.009-3.958.297-6.588 1.826-8.057 1.505-1.578 4.433-2.196 9.004-2.05l1.862-.004-.009-4.932-33.36.036zm132.596-.151l-33.142.041.005 4.932h1.793c.961 0 5.815.238 6.954.458 4.767.462 4.772 4.749 4.776 9.621 0 0 .05 42.709.05 43.82-.352-.379-.768-.906-.768-.906-2.279-2.91-8.318-10.633-45.87-57.793l-.064-.096-23.237.023.005 4.928 1.793.009c6.707.334 10.71.513 10.724 10.619l.059 52.156c.004 3.93-.302 6.529-1.83 8.071-1.615 1.601-4.653 2.374-8.981 2.265l-1.857-.073.004 4.964 34.519-.037-.005-4.891-1.835.004c-11.351-.206-12.792-.714-12.806-12.54 0 0-.05-46.405-.055-47.567.682.906 51.932 65.497 51.932 65.497l5.444-.004-.073-68.453c-.009-3.957.293-6.588 1.802-8.061 1.574-1.574 4.456-2.196 9.027-2.05h1.862l-.009-4.936h-.217v-.001z" fill-rule="evenodd" clip-rule="evenodd" fill="#fff"/></svg>